<?xml version="1.0" encoding="utf-8"?>
<!-- Generator: Adobe Illustrator 18.0.0, SVG Export Plug-In . SVG Version: 6.00 Build 0)  -->
<!DOCTYPE svg PUBLIC "-//W3C//DTD SVG 1.1//EN" "http://www.w3.org/Graphics/SVG/1.1/DTD/svg11.dtd">
<svg version="1.1" id="Layer_1" xmlns="http://www.w3.org/2000/svg" xmlns:xlink="http://www.w3.org/1999/xlink" x="0px" y="0px"
	 viewBox="-443 -363 1556 1072" enable-background="new -443 -363 1556 1072" xml:space="preserve">
<g transform="translate(0.5,0.5)">
	<path pointer-events="none" fill="none" stroke="#000000" stroke-width="8" stroke-miterlimit="10" d="M515.5-207
		c239.3,0,359,85,359,255"/>
	<path pointer-events="none" stroke="#000000" stroke-miterlimit="10" d="M874.5,59.7L866.6,44l7.9,3.9l7.9-3.9L874.5,59.7z"/>
	<g transform="translate(492.5,59.5)">
		<text transform="matrix(0.7879 0.6159 -0.6159 0.7879 270.3428 -243.9438)" font-family="'Helvetica'" font-size="26.925">Renders</text>
	</g>
	<path pointer-events="none" fill="#DAE8FC" d="M183.4-296.8h305.2c14.9,0,26.9,12.1,26.9,26.9v125.7c0,14.9-12.1,26.9-26.9,26.9
		H183.4c-14.9,0-26.9-12.1-26.9-26.9v-125.7C156.5-284.7,168.6-296.8,183.4-296.8z"/>
	<g transform="translate(304.5,32.5)">
		<text transform="matrix(1 0 0 1 -3.6642 -224.9153)" fill="#4D4D4D" font-family="'Helvetica-Bold'" font-size="31.4125">Data</text>
	</g>
	<path pointer-events="none" fill="none" stroke="#000000" stroke-width="8" stroke-miterlimit="10" d="M874.5,241.8
		c0,179.5-114.9,269.2-344.7,269.2"/>
	<path pointer-events="none" stroke="#000000" stroke-miterlimit="10" d="M518,511l15.7-7.9l-3.9,7.9l3.9,7.9L518,511z"/>
	<g transform="translate(507.5,324.5)">
		<text transform="matrix(0.794 -0.6079 0.6079 0.794 275.0513 160.3549)" font-family="'Helvetica'" font-size="26.925">Sees</text>
	</g>
	<path pointer-events="none" fill="#DAE8FC" d="M721.9,62.2h305.1c14.9,0,26.9,12.1,26.9,26.9v125.6c0,14.9-12.1,26.9-26.9,26.9
		H721.9c-14.9,0-26.9-12.1-26.9-26.9V89.2C695,74.3,707.1,62.2,721.9,62.2z"/>
	<g transform="translate(543.5,192.5)">
		<text transform="matrix(1 0 0 1 294.3629 -25.9154)" fill="#4D4D4D" font-family="'Helvetica-Bold'" font-size="31.4125">View</text>
	</g>
	<path pointer-events="none" fill="none" stroke="#000000" stroke-width="8" stroke-miterlimit="10" d="M156.5,511
		c-239.3,0-359-85-359-255"/>
	<path pointer-events="none" stroke="#000000" stroke-miterlimit="10" d="M-202.5,244.3l7.9,15.7l-7.9-3.9l-7.9,3.9L-202.5,244.3z"
		/>
	<g transform="translate(96.5,320.5)">
		<text transform="matrix(0.7815 0.6239 -0.6239 0.7815 -279.4285 111.409)" font-family="'Helvetica'" font-size="26.925">Triggers</text>
	</g>
	<path pointer-events="none" fill="#DAE8FC" d="M183.4,421.2h305.2c14.9,0,26.9,12.1,26.9,26.9v125.7c0,14.9-12.1,26.9-26.9,26.9
		H183.4c-14.9,0-26.9-12.1-26.9-26.9V448.2C156.5,433.3,168.6,421.2,183.4,421.2z"/>
	<g transform="translate(303.5,352.5)">
		<text transform="matrix(1 0 0 1 -3.546 173.0846)" fill="#4D4D4D" font-family="'Helvetica-Bold'" font-size="31.4125">User</text>
	</g>
	<path pointer-events="none" fill="none" stroke="#000000" stroke-width="8" stroke-miterlimit="10" d="M-202.5,62.2
		c0-179.5,114.9-269.2,344.7-269.2"/>
	<path pointer-events="none" stroke="#000000" stroke-miterlimit="10" d="M154-207l-15.7,7.9l3.9-7.9l-3.9-7.9L154-207z"/>
	<g transform="translate(86.5,72.5)">
		<text transform="matrix(0.6099 -0.7925 0.7925 0.6099 -283.0145 -150.877)" font-family="'Helvetica'" font-size="26.925">Updates</text>
	</g>
	<path pointer-events="none" fill="#DAE8FC" d="M-355.1,62.2h305.2c14.9,0,26.9,12.1,26.9,26.9v125.6c0,14.9-12.1,26.9-26.9,26.9
		h-305.2c-14.9,0-26.9-12.1-26.9-26.9V89.2C-382,74.3-369.9,62.2-355.1,62.2z"/>
	<g transform="translate(21.5,192.5)">
		<text transform="matrix(1 0 0 1 -355.104 -25.9154)" fill="#4D4D4D" font-family="'Helvetica-Bold'" font-size="31.4125">Action (Function)</text>
	</g>
</g>
</svg>
